<mxfile modified="2024-01-20T13:46:00.718Z" host="app.diagrams.net" agent="Mozilla/5.0 (Windows NT 10.0; Win64; x64) AppleWebKit/537.36 (KHTML, like Gecko) Chrome/120.0.0.0 Safari/537.36 Edg/120.0.0.0" etag="J4Wdtg7hRj2UielFklCE" version="22.1.21" type="device">
  <diagram id="Ht1M8jgEwFfnCIfOTk4-" name="Page-1">
    <mxGraphModel dx="1429" dy="1614" grid="1" gridSize="10" guides="1" tooltips="1" connect="1" arrows="1" fold="1" page="1" pageScale="1" pageWidth="1169" pageHeight="827" math="0" shadow="0">
      <root>
        <mxCell id="0" />
        <mxCell id="1" parent="0" />
        <mxCell id="kKr8i2WguYs9vKD3DlLb-8" value="" style="sketch=0;outlineConnect=0;fontColor=#232F3E;gradientColor=none;fillColor=#ED7100;strokeColor=none;dashed=0;verticalLabelPosition=bottom;verticalAlign=top;align=center;html=1;fontSize=12;fontStyle=0;aspect=fixed;pointerEvents=1;shape=mxgraph.aws4.instance2;" vertex="1" parent="1">
          <mxGeometry x="400" y="-480" width="80" height="80" as="geometry" />
        </mxCell>
        <mxCell id="kKr8i2WguYs9vKD3DlLb-9" value="" style="sketch=0;outlineConnect=0;fontColor=#232F3E;gradientColor=none;fillColor=#ED7100;strokeColor=none;dashed=0;verticalLabelPosition=bottom;verticalAlign=top;align=center;html=1;fontSize=12;fontStyle=0;aspect=fixed;pointerEvents=1;shape=mxgraph.aws4.instance2;" vertex="1" parent="1">
          <mxGeometry x="600" y="-480" width="80" height="80" as="geometry" />
        </mxCell>
        <mxCell id="kKr8i2WguYs9vKD3DlLb-11" value="EC2 instance" style="text;strokeColor=none;align=center;fillColor=none;html=1;verticalAlign=middle;whiteSpace=wrap;rounded=0;" vertex="1" parent="1">
          <mxGeometry x="610" y="-455" width="60" height="30" as="geometry" />
        </mxCell>
        <mxCell id="kKr8i2WguYs9vKD3DlLb-13" value="EC2 instance" style="text;strokeColor=none;align=center;fillColor=none;html=1;verticalAlign=middle;whiteSpace=wrap;rounded=0;" vertex="1" parent="1">
          <mxGeometry x="410" y="-455" width="60" height="30" as="geometry" />
        </mxCell>
        <mxCell id="kKr8i2WguYs9vKD3DlLb-14" value="" style="whiteSpace=wrap;html=1;aspect=fixed;gradientColor=none;fillColor=none;" vertex="1" parent="1">
          <mxGeometry x="310" y="-540" width="200" height="200" as="geometry" />
        </mxCell>
        <mxCell id="kKr8i2WguYs9vKD3DlLb-15" value="VPC Subnet" style="text;strokeColor=none;align=center;fillColor=none;html=1;verticalAlign=middle;whiteSpace=wrap;rounded=0;" vertex="1" parent="1">
          <mxGeometry x="410" y="-390" width="60" height="30" as="geometry" />
        </mxCell>
        <mxCell id="kKr8i2WguYs9vKD3DlLb-16" value="" style="whiteSpace=wrap;html=1;aspect=fixed;fillColor=none;" vertex="1" parent="1">
          <mxGeometry x="560" y="-540" width="200" height="200" as="geometry" />
        </mxCell>
        <mxCell id="kKr8i2WguYs9vKD3DlLb-18" value="VPC Subnet" style="text;strokeColor=none;align=center;fillColor=none;html=1;verticalAlign=middle;whiteSpace=wrap;rounded=0;" vertex="1" parent="1">
          <mxGeometry x="610" y="-380" width="60" height="30" as="geometry" />
        </mxCell>
        <mxCell id="kKr8i2WguYs9vKD3DlLb-19" value="" style="sketch=0;pointerEvents=1;shadow=0;dashed=0;html=1;strokeColor=none;labelPosition=center;verticalLabelPosition=bottom;verticalAlign=top;outlineConnect=0;align=center;shape=mxgraph.office.security.lock_protected;fillColor=#2072B8;" vertex="1" parent="1">
          <mxGeometry x="320" y="-580" width="38" height="52" as="geometry" />
        </mxCell>
        <mxCell id="kKr8i2WguYs9vKD3DlLb-20" value="" style="sketch=0;pointerEvents=1;shadow=0;dashed=0;html=1;strokeColor=none;labelPosition=center;verticalLabelPosition=bottom;verticalAlign=top;outlineConnect=0;align=center;shape=mxgraph.office.security.lock_protected;fillColor=#2072B8;" vertex="1" parent="1">
          <mxGeometry x="572" y="-580" width="38" height="52" as="geometry" />
        </mxCell>
        <mxCell id="kKr8i2WguYs9vKD3DlLb-23" value="" style="rounded=0;whiteSpace=wrap;html=1;fillColor=none;" vertex="1" parent="1">
          <mxGeometry x="180" y="-610" width="700" height="330" as="geometry" />
        </mxCell>
        <mxCell id="kKr8i2WguYs9vKD3DlLb-24" value="" style="outlineConnect=0;dashed=0;verticalLabelPosition=bottom;verticalAlign=top;align=center;html=1;shape=mxgraph.aws3.virtual_private_cloud;fillColor=#F58534;gradientColor=none;" vertex="1" parent="1">
          <mxGeometry x="200" y="-640" width="79.5" height="54" as="geometry" />
        </mxCell>
        <mxCell id="kKr8i2WguYs9vKD3DlLb-26" value="" style="outlineConnect=0;dashed=0;verticalLabelPosition=bottom;verticalAlign=top;align=center;html=1;shape=mxgraph.aws3.ami;fillColor=#F58534;gradientColor=none;" vertex="1" parent="1">
          <mxGeometry x="510" y="-220" width="70" height="63" as="geometry" />
        </mxCell>
        <mxCell id="kKr8i2WguYs9vKD3DlLb-27" value="EC2 AMI" style="text;strokeColor=none;align=center;fillColor=none;html=1;verticalAlign=middle;whiteSpace=wrap;rounded=0;" vertex="1" parent="1">
          <mxGeometry x="510" y="-150" width="60" height="30" as="geometry" />
        </mxCell>
        <mxCell id="kKr8i2WguYs9vKD3DlLb-35" value="" style="endArrow=classic;startArrow=classic;html=1;rounded=0;entryX=0.414;entryY=0.5;entryDx=0;entryDy=0;entryPerimeter=0;" edge="1" parent="1">
          <mxGeometry width="50" height="50" relative="1" as="geometry">
            <mxPoint x="529.74" y="-217.5" as="sourcePoint" />
            <mxPoint x="479.99999999999994" y="-425" as="targetPoint" />
            <Array as="points">
              <mxPoint x="530.2" y="-425" />
            </Array>
          </mxGeometry>
        </mxCell>
        <mxCell id="kKr8i2WguYs9vKD3DlLb-36" value="" style="endArrow=classic;startArrow=classic;html=1;rounded=0;" edge="1" parent="1">
          <mxGeometry width="50" height="50" relative="1" as="geometry">
            <mxPoint x="620" y="-417" as="sourcePoint" />
            <mxPoint x="550" y="-220" as="targetPoint" />
            <Array as="points">
              <mxPoint x="567" y="-416.85" />
              <mxPoint x="550" y="-420" />
            </Array>
          </mxGeometry>
        </mxCell>
        <mxCell id="kKr8i2WguYs9vKD3DlLb-38" value="" style="sketch=0;outlineConnect=0;fontColor=#232F3E;gradientColor=none;fillColor=#ED7100;strokeColor=none;dashed=0;verticalLabelPosition=bottom;verticalAlign=top;align=center;html=1;fontSize=12;fontStyle=0;aspect=fixed;pointerEvents=1;shape=mxgraph.aws4.auto_scaling2;" vertex="1" parent="1">
          <mxGeometry x="490" y="-90" width="120" height="120" as="geometry" />
        </mxCell>
        <mxCell id="kKr8i2WguYs9vKD3DlLb-42" value="" style="endArrow=classic;html=1;rounded=0;entryX=1;entryY=0.5;entryDx=0;entryDy=0;entryPerimeter=0;" edge="1" parent="1" source="kKr8i2WguYs9vKD3DlLb-38" target="kKr8i2WguYs9vKD3DlLb-26">
          <mxGeometry width="50" height="50" relative="1" as="geometry">
            <mxPoint x="630" y="-80" as="sourcePoint" />
            <mxPoint x="580" y="-300" as="targetPoint" />
            <Array as="points">
              <mxPoint x="670" y="-30" />
              <mxPoint x="670" y="-188" />
            </Array>
          </mxGeometry>
        </mxCell>
        <mxCell id="kKr8i2WguYs9vKD3DlLb-43" value="" style="outlineConnect=0;dashed=0;verticalLabelPosition=bottom;verticalAlign=top;align=center;html=1;shape=mxgraph.aws3.alarm;fillColor=#759C3E;gradientColor=none;" vertex="1" parent="1">
          <mxGeometry x="40" y="-286" width="54" height="66" as="geometry" />
        </mxCell>
        <mxCell id="kKr8i2WguYs9vKD3DlLb-44" value="" style="endArrow=classic;html=1;rounded=0;" edge="1" parent="1" source="kKr8i2WguYs9vKD3DlLb-38">
          <mxGeometry width="50" height="50" relative="1" as="geometry">
            <mxPoint x="530" y="-250" as="sourcePoint" />
            <mxPoint x="90" y="-220" as="targetPoint" />
            <Array as="points">
              <mxPoint x="90" y="-30" />
            </Array>
          </mxGeometry>
        </mxCell>
        <mxCell id="kKr8i2WguYs9vKD3DlLb-45" value="" style="outlineConnect=0;dashed=0;verticalLabelPosition=bottom;verticalAlign=top;align=center;html=1;shape=mxgraph.aws3.cloudwatch;fillColor=#759C3E;gradientColor=none;" vertex="1" parent="1">
          <mxGeometry x="25.75" y="-560" width="82.5" height="93" as="geometry" />
        </mxCell>
        <mxCell id="kKr8i2WguYs9vKD3DlLb-46" value="Alarm" style="text;strokeColor=none;align=center;fillColor=none;html=1;verticalAlign=middle;whiteSpace=wrap;rounded=0;" vertex="1" parent="1">
          <mxGeometry x="25.75" y="-210" width="60" height="30" as="geometry" />
        </mxCell>
        <mxCell id="kKr8i2WguYs9vKD3DlLb-51" value="" style="endArrow=classic;html=1;rounded=0;" edge="1" parent="1">
          <mxGeometry width="50" height="50" relative="1" as="geometry">
            <mxPoint x="60" y="-600" as="sourcePoint" />
            <mxPoint x="440" y="-450" as="targetPoint" />
            <Array as="points">
              <mxPoint x="440" y="-600" />
            </Array>
          </mxGeometry>
        </mxCell>
        <mxCell id="kKr8i2WguYs9vKD3DlLb-72" value="" style="endArrow=classic;html=1;rounded=0;" edge="1" parent="1">
          <mxGeometry width="50" height="50" relative="1" as="geometry">
            <mxPoint x="639.23" y="-586" as="sourcePoint" />
            <mxPoint x="639" y="-460" as="targetPoint" />
          </mxGeometry>
        </mxCell>
        <mxCell id="kKr8i2WguYs9vKD3DlLb-73" value="" style="endArrow=none;html=1;rounded=0;" edge="1" parent="1">
          <mxGeometry width="50" height="50" relative="1" as="geometry">
            <mxPoint x="140" y="-586" as="sourcePoint" />
            <mxPoint x="640" y="-586" as="targetPoint" />
          </mxGeometry>
        </mxCell>
        <mxCell id="kKr8i2WguYs9vKD3DlLb-75" value="" style="endArrow=none;html=1;rounded=0;" edge="1" parent="1">
          <mxGeometry width="50" height="50" relative="1" as="geometry">
            <mxPoint x="70" y="-586" as="sourcePoint" />
            <mxPoint x="150" y="-586" as="targetPoint" />
          </mxGeometry>
        </mxCell>
        <mxCell id="kKr8i2WguYs9vKD3DlLb-77" value="Cloudwatch" style="text;strokeColor=none;align=center;fillColor=none;html=1;verticalAlign=middle;whiteSpace=wrap;rounded=0;" vertex="1" parent="1">
          <mxGeometry x="10" y="-467" width="60" height="30" as="geometry" />
        </mxCell>
        <mxCell id="kKr8i2WguYs9vKD3DlLb-78" value="Auto scaling" style="text;strokeColor=none;align=center;fillColor=none;html=1;verticalAlign=middle;whiteSpace=wrap;rounded=0;" vertex="1" parent="1">
          <mxGeometry x="520" y="40" width="70" height="30" as="geometry" />
        </mxCell>
        <mxCell id="kKr8i2WguYs9vKD3DlLb-84" value="" style="endArrow=classic;html=1;rounded=0;exitX=0.85;exitY=0;exitDx=0;exitDy=0;exitPerimeter=0;" edge="1" parent="1" source="kKr8i2WguYs9vKD3DlLb-43">
          <mxGeometry width="50" height="50" relative="1" as="geometry">
            <mxPoint x="85.75" y="-340" as="sourcePoint" />
            <mxPoint x="85.75" y="-470" as="targetPoint" />
          </mxGeometry>
        </mxCell>
        <mxCell id="kKr8i2WguYs9vKD3DlLb-88" value="" style="endArrow=none;html=1;rounded=0;" edge="1" parent="1">
          <mxGeometry width="50" height="50" relative="1" as="geometry">
            <mxPoint x="70" y="-546" as="sourcePoint" />
            <mxPoint x="70" y="-586" as="targetPoint" />
          </mxGeometry>
        </mxCell>
        <mxCell id="kKr8i2WguYs9vKD3DlLb-89" value="" style="endArrow=none;html=1;rounded=0;" edge="1" parent="1">
          <mxGeometry width="50" height="50" relative="1" as="geometry">
            <mxPoint x="60" y="-540" as="sourcePoint" />
            <mxPoint x="60" y="-600" as="targetPoint" />
          </mxGeometry>
        </mxCell>
      </root>
    </mxGraphModel>
  </diagram>
</mxfile>
